<?xml version="1.0" encoding="iso-8859-1"?>
<!-- Generator: Adobe Illustrator 23.0.0, SVG Export Plug-In . SVG Version: 6.00 Build 0)  -->
<svg version="1.1" id="&#x56FE;&#x5C42;_1" xmlns="http://www.w3.org/2000/svg" xmlns:xlink="http://www.w3.org/1999/xlink" x="0px"
	 y="0px" viewBox="0 0 428 24" style="enable-background:new 0 0 428 24;" xml:space="preserve">
<g>
	<linearGradient id="SVGID_1_" gradientUnits="userSpaceOnUse" x1="0" y1="12" x2="428" y2="12">
		<stop  offset="0" style="stop-color:#F35C2A"/>
		<stop  offset="1" style="stop-color:#F93980"/>
	</linearGradient>
	<path style="fill:url(#SVGID_1_);" d="M416,24H12C5.373,24,0,18.627,0,12v0C0,5.373,5.373,0,12,0l404,0c6.627,0,12,5.373,12,12v0
		C428,18.627,422.627,24,416,24z"/>
</g>
<polygon style="opacity:0.15;fill:#FFFFFF;" points="378.667,24 368.667,24 382.667,0 391.667,0 "/>
<polygon style="opacity:0.15;fill:#FFFFFF;" points="353.333,24 343.333,24 357.333,0 366.333,0 "/>
<polygon style="opacity:0.15;fill:#FFFFFF;" points="328,24 318,24 332,0 341,0 "/>
<polygon style="opacity:0.15;fill:#FFFFFF;" points="302.667,24 292.667,24 306.667,0 315.667,0 "/>
<polygon style="opacity:0.15;fill:#FFFFFF;" points="277.333,24 267.333,24 281.333,0 290.333,0 "/>
<polygon style="opacity:0.15;fill:#FFFFFF;" points="252,24 242,24 256,0 265,0 "/>
<polygon style="opacity:0.15;fill:#FFFFFF;" points="226.667,24 216.667,24 230.667,0 239.667,0 "/>
<polygon style="opacity:0.15;fill:#FFFFFF;" points="201.333,24 191.333,24 205.333,0 214.333,0 "/>
<polygon style="opacity:0.15;fill:#FFFFFF;" points="176,24 166,24 180,0 189,0 "/>
<polygon style="opacity:0.15;fill:#FFFFFF;" points="150.667,24 140.667,24 154.667,0 163.667,0 "/>
<polygon style="opacity:0.15;fill:#FFFFFF;" points="125.333,24 115.333,24 129.333,0 138.333,0 "/>
<polygon style="opacity:0.15;fill:#FFFFFF;" points="100,24 90,24 104,0 113,0 "/>
<polygon style="opacity:0.15;fill:#FFFFFF;" points="74.667,24 64.667,24 78.667,0 87.667,0 "/>
<polygon style="opacity:0.15;fill:#FFFFFF;" points="49.333,24 39.333,24 53.333,0 62.333,0 "/>
<polygon style="opacity:0.15;fill:#FFFFFF;" points="24,24 14,24 28,0 37,0 "/>
<polygon style="opacity:0.15;fill:#FFFFFF;" points="404,24 394,24 408,0 417,0 "/>
</svg>
