<?xml version="1.0" encoding="utf-8"?>
<!-- Generator: Adobe Illustrator 23.0.0, SVG Export Plug-In . SVG Version: 6.00 Build 0)  -->
<svg version="1.1" id="图层_1" xmlns="http://www.w3.org/2000/svg" xmlns:xlink="http://www.w3.org/1999/xlink" x="0px" y="0px"
	 viewBox="0 0 28 28" style="enable-background:new 0 0 28 28;" xml:space="preserve">
<style type="text/css">
	.st0{fill:url(#SVGID_1_);}
	.st1{fill:url(#SVGID_2_);}
	.st2{fill:url(#SVGID_3_);}
	.st3{fill:url(#SVGID_4_);}
	.st4{fill:url(#SVGID_5_);}
	.st5{fill:url(#SVGID_6_);}
	.st6{fill:url(#SVGID_7_);}
	.st7{fill:url(#SVGID_8_);}
	.st8{fill:url(#SVGID_9_);}
	.st9{fill:url(#SVGID_10_);}
	.st10{fill:url(#SVGID_11_);}
	.st11{fill:url(#SVGID_12_);}
	.st12{fill:#FFFE17;}
</style>
<g>
	<linearGradient id="SVGID_1_" gradientUnits="userSpaceOnUse" x1="26.8139" y1="-7.000000e-02" x2="26.8139" y2="28.2472">
		<stop  offset="0" style="stop-color:#E03911"/>
		<stop  offset="1" style="stop-color:#A4050D"/>
	</linearGradient>
	<path class="st0" d="M26.6,17.3c0.2-0.8,0.4-1.6,0.4-2.4C27,15.7,26.9,16.5,26.6,17.3z"/>
	<linearGradient id="SVGID_2_" gradientUnits="userSpaceOnUse" x1="14" y1="-7.000000e-02" x2="14" y2="28.2472">
		<stop  offset="0" style="stop-color:#E03911"/>
		<stop  offset="1" style="stop-color:#A4050D"/>
	</linearGradient>
	<path class="st1" d="M25.7,5.4L25.7,5.4c0,0-3.1-0.1-6.2-1.3c-2.8-1.1-4.9-2.4-5.3-2.7L14,1.2l-0.2,0.1c-0.1,0.1-2.1,1.5-5.3,2.7
		C5.4,5.3,2.3,5.4,2.3,5.4L2,5.4v9.5C2,20.6,9.8,27,14,27c4.2,0,12-6.4,12-12.1l0-9.5L25.7,5.4z M9.2,21V10h-1V9h4.2v5l5.3-5h4.2
		L9.2,21z"/>
	<linearGradient id="SVGID_3_" gradientUnits="userSpaceOnUse" x1="3.9594" y1="-7.000000e-02" x2="3.9594" y2="28.2472">
		<stop  offset="0" style="stop-color:#E03911"/>
		<stop  offset="1" style="stop-color:#A4050D"/>
	</linearGradient>
	<path class="st2" d="M4.8,22.9c-0.6-0.7-1.2-1.4-1.7-2.1C3.6,21.5,4.2,22.2,4.8,22.9z"/>
	<linearGradient id="SVGID_4_" gradientUnits="userSpaceOnUse" x1="24.0408" y1="-7.000000e-02" x2="24.0408" y2="28.2472">
		<stop  offset="0" style="stop-color:#E03911"/>
		<stop  offset="1" style="stop-color:#A4050D"/>
	</linearGradient>
	<path class="st3" d="M24.9,20.8c-0.5,0.7-1.1,1.4-1.7,2.1C23.8,22.2,24.4,21.5,24.9,20.8z"/>
	<linearGradient id="SVGID_5_" gradientUnits="userSpaceOnUse" x1="1.1861" y1="-7.000000e-02" x2="1.1861" y2="28.2472">
		<stop  offset="0" style="stop-color:#E03911"/>
		<stop  offset="1" style="stop-color:#A4050D"/>
	</linearGradient>
	<path class="st4" d="M1.4,17.3C1.1,16.5,1,15.7,1,14.9C1,15.7,1.1,16.5,1.4,17.3z"/>
	<linearGradient id="SVGID_6_" gradientUnits="userSpaceOnUse" x1="26.3536" y1="0.625" x2="26.3536" y2="27.9069">
		<stop  offset="0" style="stop-color:#FFB83B"/>
		<stop  offset="1" style="stop-color:#FFC639"/>
	</linearGradient>
	<polygon class="st5" points="27,14.9 27,4.4 25.7,4.4 27,4.4 	"/>
	<linearGradient id="SVGID_7_" gradientUnits="userSpaceOnUse" x1="1.6458" y1="0.625" x2="1.6458" y2="27.9069">
		<stop  offset="0" style="stop-color:#FFB83B"/>
		<stop  offset="1" style="stop-color:#FFC639"/>
	</linearGradient>
	<polygon class="st6" points="1,4.4 1,4.4 2.3,4.4 	"/>
	<linearGradient id="SVGID_8_" gradientUnits="userSpaceOnUse" x1="7.0802" y1="0.625" x2="7.0802" y2="27.9069">
		<stop  offset="0" style="stop-color:#FFB83B"/>
		<stop  offset="1" style="stop-color:#FFC639"/>
	</linearGradient>
	<path class="st7" d="M6.5,3.7c0.4-0.1,0.7-0.2,1.1-0.3C7.3,3.5,6.9,3.6,6.5,3.7z"/>
	<linearGradient id="SVGID_9_" gradientUnits="userSpaceOnUse" x1="6.019" y1="0.625" x2="6.019" y2="27.9069">
		<stop  offset="0" style="stop-color:#FFB83B"/>
		<stop  offset="1" style="stop-color:#FFC639"/>
	</linearGradient>
	<path class="st8" d="M5.5,3.9c0.3-0.1,0.7-0.2,1-0.3C6.2,3.8,5.8,3.9,5.5,3.9z"/>
	<linearGradient id="SVGID_10_" gradientUnits="userSpaceOnUse" x1="3.4048" y1="0.625" x2="3.4048" y2="27.9069">
		<stop  offset="0" style="stop-color:#FFB83B"/>
		<stop  offset="1" style="stop-color:#FFC639"/>
	</linearGradient>
	<path class="st9" d="M3.1,4.3c0.2,0,0.4,0,0.7-0.1C3.5,4.3,3.3,4.3,3.1,4.3z"/>
	<linearGradient id="SVGID_11_" gradientUnits="userSpaceOnUse" x1="14" y1="-7.000000e-02" x2="14" y2="28.2472">
		<stop  offset="0" style="stop-color:#E03911"/>
		<stop  offset="1" style="stop-color:#A4050D"/>
	</linearGradient>
	<path class="st10" d="M27,4.4l-1.3,0c0,0-2.9-0.1-5.9-1.2c-3.1-1.2-5-2.6-5-2.6L14,0l-0.8,0.5c0,0-2,1.4-5,2.6
		C8,3.2,7.8,3.3,7.6,3.3C7.3,3.5,6.9,3.6,6.5,3.7c-0.4,0.1-0.7,0.2-1,0.3C4.8,4.1,4.2,4.2,3.7,4.2c-0.2,0-0.5,0.1-0.7,0.1
		c-0.5,0-0.8,0-0.8,0L1,4.4v10.5c0,0.8,0.1,1.6,0.4,2.4c0.4,1.2,1,2.4,1.7,3.5c0.5,0.7,1.1,1.4,1.7,2.1c2.8,3,6.6,5.1,9.2,5.1
		c2.6,0,6.4-2.1,9.2-5.1c0.6-0.7,1.2-1.4,1.7-2.1c0.8-1.1,1.4-2.3,1.7-3.5c0.2-0.8,0.4-1.6,0.4-2.4L27,4.4z M14,27
		C9.8,27,2,20.6,2,14.9V5.4l0.3,0c0,0,3.1-0.1,6.3-1.3c3.1-1.2,5.2-2.6,5.3-2.7L14,1.2l0.2,0.1c0.4,0.3,2.4,1.6,5.3,2.7
		c3.2,1.2,6.2,1.3,6.2,1.3h0l0.3,0l0,9.5C26,20.6,18.2,27,14,27z"/>
	<linearGradient id="SVGID_12_" gradientUnits="userSpaceOnUse" x1="14" y1="0.625" x2="14" y2="27.9069">
		<stop  offset="0" style="stop-color:#FFB83B"/>
		<stop  offset="1" style="stop-color:#FFC639"/>
	</linearGradient>
	<path class="st11" d="M27,4.4l-1.3,0c0,0-2.9-0.1-5.9-1.2c-3.1-1.2-5-2.6-5-2.6L14,0l-0.8,0.5c0,0-2,1.4-5,2.6
		C8,3.2,7.8,3.3,7.6,3.3C7.3,3.5,6.9,3.6,6.5,3.7c-0.4,0.1-0.7,0.2-1,0.3C4.8,4.1,4.2,4.2,3.7,4.2c-0.2,0-0.5,0.1-0.7,0.1
		c-0.5,0-0.8,0-0.8,0L1,4.4v10.5c0,0.8,0.1,1.6,0.4,2.4c0.4,1.2,1,2.4,1.7,3.5c0.5,0.7,1.1,1.4,1.7,2.1c2.8,3,6.6,5.1,9.2,5.1
		c2.6,0,6.4-2.1,9.2-5.1c0.6-0.7,1.2-1.4,1.7-2.1c0.8-1.1,1.4-2.3,1.7-3.5c0.2-0.8,0.4-1.6,0.4-2.4L27,4.4z M14,27
		C9.8,27,2,20.6,2,14.9V5.4l0.3,0c0,0,3.1-0.1,6.3-1.3c3.1-1.2,5.2-2.6,5.3-2.7L14,1.2l0.2,0.1c0.4,0.3,2.4,1.6,5.3,2.7
		c3.2,1.2,6.2,1.3,6.2,1.3h0l0.3,0l0,9.5C26,20.6,18.2,27,14,27z"/>
	<polygon class="st12" points="12.4,14 12.4,9 8.2,9 8.2,10 9.2,10 9.2,21 21.8,9 17.7,9 	"/>
</g>
</svg>
